<?xml version="1.0" encoding="UTF-8"?>
<svg xmlns="http://www.w3.org/2000/svg" xmlns:xlink="http://www.w3.org/1999/xlink" width="1367pt" height="751pt" viewBox="0 0 1367 751" version="1.1">
<g id="surface1">
<path style="fill:none;stroke-width:1;stroke-linecap:round;stroke-linejoin:round;stroke:rgb(0%,0%,0%);stroke-opacity:1;stroke-miterlimit:10;" d="M 226.664947 398.999459 L 226.667548 398.999459 " transform="matrix(1.501898,0,0,1.502,-4.505693,52.57)"/>
<path style="fill:none;stroke-width:1;stroke-linecap:round;stroke-linejoin:round;stroke:rgb(0%,0%,0%);stroke-opacity:1;stroke-miterlimit:10;" d="M 315.665877 314.001098 L 315.668378 314.001098 " transform="matrix(1.561974,0,0,1.56208,-47.620371,-30.38546)"/>
<path style=" stroke:none;fill-rule:nonzero;fill:rgb(33.333333%,74.901961%,19.215686%);fill-opacity:1;" d="M 232.609375 22.296875 C 215.625 40.15625 236.125 64.171875 268.925781 64.171875 C 294.113281 64.171875 300.554688 74.640625 290.597656 100.507812 L 283.570312 117.75 L 258.96875 108.511719 C 245.496094 103.585938 215.625 99.273438 193.367188 99.273438 C 120.734375 98.660156 62.160156 136.839844 25.84375 207.042969 C 8.273438 241.53125 6.515625 251.382812 5.929688 295.105469 C 5.929688 338.828125 8.273438 349.296875 25.257812 385.632812 C 44.585938 427.507812 72.117188 457.066406 114.289062 480.46875 C 130.105469 489.703125 147.679688 492.167969 193.367188 492.167969 C 246.667969 492.167969 255.453125 490.320312 290.011719 473.078125 C 337.457031 449.675781 379.632812 412.726562 497.949219 292.027344 C 589.328125 198.421875 651.414062 146.078125 659.613281 155.316406 C 661.957031 157.777344 673.085938 181.792969 684.214844 208.890625 C 702.960938 252.613281 704.132812 258.773438 696.515625 269.855469 C 683.042969 290.179688 685.972656 320.96875 703.546875 339.445312 C 715.847656 352.378906 722.289062 354.222656 739.863281 351.144531 C 792.578125 342.523438 796.679688 275.398438 746.304688 253.230469 C 732.246094 247.070312 724.046875 235.371094 705.886719 192.265625 L 683.042969 138.6875 L 704.71875 131.914062 C 781.449219 109.742188 866.96875 153.46875 899.183594 231.675781 C 915.582031 272.320312 913.828125 336.980469 894.496094 375.777344 C 869.894531 426.277344 803.121094 470.613281 752.160156 470.613281 C 697.6875 470.613281 636.183594 439.824219 570.582031 378.855469 C 538.953125 349.296875 534.265625 346.835938 526.066406 355.457031 C 518.453125 363.460938 520.207031 367.15625 543.636719 389.941406 C 620.371094 464.457031 669.574219 490.9375 736.347656 494.015625 C 820.695312 498.328125 882.195312 461.992188 917.925781 386.246094 C 934.914062 349.296875 937.253906 339.445312 936.671875 295.105469 C 936.671875 257.539062 933.742188 239.066406 923.199219 217.511719 C 882.78125 128.835938 797.265625 83.878906 707.644531 103.585938 L 671.328125 110.976562 L 659.613281 83.261719 L 647.898438 54.9375 L 678.359375 51.855469 C 704.132812 49.394531 708.816406 46.929688 708.816406 36.460938 C 708.816406 25.375 704.132812 24.144531 665.472656 22.296875 C 641.457031 21.066406 619.785156 22.914062 616.269531 26.609375 C 612.753906 30.304688 613.925781 41.386719 620.371094 58.015625 C 625.640625 71.5625 629.742188 83.261719 629.742188 84.496094 C 629.742188 85.109375 562.382812 85.109375 479.792969 84.496094 C 361.472656 83.878906 328.671875 82.03125 324.570312 75.257812 C 315.785156 61.09375 318.714844 58.015625 344.488281 58.015625 C 372.015625 58.015625 396.617188 44.46875 386.660156 34.613281 C 380.800781 28.457031 289.425781 14.90625 257.210938 14.90625 C 247.253906 14.90625 236.710938 17.988281 232.609375 22.296875 Z M 647.316406 118.367188 C 647.316406 120.828125 630.328125 134.992188 609.828125 149.15625 C 589.328125 163.320312 520.207031 227.980469 455.777344 293.257812 C 389.003906 361 323.984375 421.347656 305.242188 433.050781 C 224.996094 483.546875 147.679688 481.082031 89.105469 427.507812 C 12.957031 356.6875 12.371094 240.296875 87.933594 170.09375 C 117.21875 143 158.808594 125.753906 194.539062 125.753906 C 220.894531 125.753906 266.582031 138.070312 266.582031 144.84375 C 266.582031 147.925781 254.867188 175.636719 240.226562 205.8125 C 219.722656 248.304688 210.9375 261.234375 201.566406 261.234375 C 183.410156 261.234375 161.148438 288.332031 161.148438 310.5 C 161.148438 352.992188 214.453125 376.394531 241.980469 345.601562 C 257.796875 328.359375 260.140625 304.957031 249.011719 282.789062 C 241.398438 268.007812 242.566406 263.082031 266.582031 211.96875 C 280.640625 181.179688 293.527344 156.546875 294.699219 156.546875 C 299.96875 156.546875 349.171875 195.34375 376.703125 221.207031 C 405.402344 248.304688 408.917969 250.152344 417.117188 240.914062 C 425.90625 231.675781 424.148438 228.597656 395.445312 201.5 C 378.460938 185.488281 352.6875 162.703125 338.042969 152.234375 C 305.242188 126.988281 305.828125 127.601562 310.515625 120.210938 C 314.613281 112.207031 647.316406 110.359375 647.316406 118.367188 Z M 751.578125 287.101562 C 770.320312 306.804688 741.03125 340.675781 720.53125 322.816406 C 711.746094 314.8125 708.816406 291.410156 715.847656 284.019531 C 722.289062 277.246094 743.960938 279.09375 751.578125 287.101562 Z M 224.410156 293.257812 C 228.511719 297.570312 231.4375 306.804688 231.4375 314.8125 C 231.4375 331.4375 206.839844 340.675781 193.367188 328.976562 C 176.964844 314.8125 186.921875 285.867188 208.007812 285.867188 C 213.28125 285.867188 220.308594 288.949219 224.410156 293.257812 Z M 224.410156 293.257812 "/>
<path style=" stroke:none;fill-rule:nonzero;fill:rgb(0%,0%,0%);fill-opacity:1;" d="M 284.195312 108.261719 C 282.085938 107.550781 281.617188 108.515625 280.105469 115.996094 C 277.757812 126.652344 273.890625 134.644531 266.839844 143.046875 C 262.371094 148.65625 261.726562 149.988281 263.234375 150.863281 C 264.234375 151.339844 270.789062 154.484375 277.914062 157.902344 C 285.042969 161.316406 291.597656 164.460938 292.597656 164.941406 C 294.222656 165.570312 294.867188 164.238281 296.488281 157.261719 C 297.339844 152.597656 299.472656 146.011719 301.050781 142.746094 C 302.691406 139.355469 306.476562 133.710938 309.667969 130.019531 C 313.46875 125.429688 314.582031 123.128906 313.699219 122.410156 C 311.027344 120.679688 286.652344 108.992188 284.195312 108.261719 Z M 284.195312 108.261719 "/>
<path style=" stroke:none;fill-rule:nonzero;fill:rgb(0%,0%,0%);fill-opacity:1;" d="M 259.386719 155.546875 C 258.925781 155.773438 257.597656 159.609375 256.601562 164.203125 C 254.339844 175.050781 251.058594 181.828125 243.949219 190.351562 C 240.960938 193.992188 238.777344 197.417969 238.886719 197.917969 C 239.472656 199.242188 269.460938 213.472656 270.8125 213.226562 C 271.414062 213.066406 272.660156 209.042969 273.511719 204.378906 C 275.097656 195.292969 283.375 179.277344 288.953125 174.644531 C 290.484375 173.292969 291.648438 171.613281 291.398438 171.042969 C 290.667969 169.648438 260.9375 155.246094 259.386719 155.546875 Z M 259.386719 155.546875 "/>
<path style=" stroke:none;fill-rule:nonzero;fill:rgb(0%,0%,0%);fill-opacity:1;" d="M 236.941406 203.375 C 235.824219 203.140625 235.148438 204.902344 234.738281 208.285156 C 233.921875 215.054688 223.496094 236.601562 218.632812 241.578125 C 215.710938 244.351562 215.183594 245.441406 216.464844 246.058594 C 221.253906 248.5 244 259.558594 246.050781 260.394531 C 248.105469 261.230469 248.515625 260.382812 250.230469 252.851562 C 252.433594 242.125 256.300781 234.132812 263.40625 225.613281 L 268.890625 218.992188 L 257.40625 213.335938 C 250.992188 210.261719 244.269531 206.738281 242.1875 205.59375 C 240.25 204.515625 237.769531 203.476562 236.941406 203.375 Z M 236.941406 203.375 "/>
<path style=" stroke:none;fill-rule:nonzero;fill:rgb(0%,0%,0%);fill-opacity:1;" d="M 640.199219 119 C 638.261719 120.148438 638.699219 121.132812 643.460938 127.125 C 650.125 135.8125 653.730469 143.933594 655.5625 154.746094 C 656.9375 161.785156 657.539062 163.140625 659.207031 162.554688 C 660.230469 162.101562 666.96875 159.140625 674.289062 155.917969 C 681.609375 152.695312 688.347656 149.730469 689.371094 149.28125 C 690.929688 148.449219 690.328125 147.09375 686.019531 141.34375 C 682.988281 137.675781 679.324219 131.789062 677.847656 128.46875 C 676.316406 125.023438 674.460938 118.484375 673.71875 113.664062 C 672.6875 107.796875 671.648438 105.457031 670.511719 105.664062 C 667.421875 106.582031 642.378906 117.601562 640.199219 119 Z M 640.199219 119 "/>
<path style=" stroke:none;fill-rule:nonzero;fill:rgb(0%,0%,0%);fill-opacity:1;" d="M 660.28125 168.519531 C 660.152344 169.019531 662.230469 172.515625 665.113281 176.246094 C 671.976562 184.992188 675.039062 191.882812 676.921875 202.816406 C 677.757812 207.453125 678.957031 211.335938 679.414062 211.574219 C 680.820312 211.984375 711.519531 198.332031 712.214844 197.140625 C 712.492188 196.578125 710.210938 193.023438 707.179688 189.355469 C 701.230469 182.269531 694.34375 165.589844 694.445312 158.339844 C 694.414062 156.296875 693.886719 154.320312 693.28125 154.144531 C 691.726562 153.800781 661.070312 167.144531 660.28125 168.519531 Z M 660.28125 168.519531 "/>
<path style=" stroke:none;fill-rule:nonzero;fill:rgb(0%,0%,0%);fill-opacity:1;" d="M 682.335938 216.589844 C 681.421875 217.289062 682.332031 218.945312 684.667969 221.445312 C 689.34375 226.449219 699.074219 248.347656 699.703125 255.277344 C 699.917969 259.300781 700.410156 260.40625 701.726562 259.828125 C 706.761719 257.757812 730.246094 247.574219 732.238281 246.546875 C 734.234375 245.523438 733.851562 244.660156 729.179688 238.480469 C 722.371094 229.859375 718.765625 221.738281 716.878906 210.804688 L 715.394531 202.339844 L 703.476562 207.433594 C 696.886719 210.335938 689.75 213.179688 687.5 214.023438 C 685.394531 214.804688 682.960938 216.023438 682.335938 216.589844 Z M 682.335938 216.589844 "/>
<path style=" stroke:none;fill-rule:nonzero;fill:rgb(0%,0%,0%);fill-opacity:1;" d="M 585.765625 158.976562 C 584.757812 158.804688 582.8125 161.207031 581.4375 163.917969 C 576.835938 173.625 557.375 192.910156 545.183594 199.957031 C 536.367188 205.210938 533.851562 207.3125 534.671875 209.070312 C 535.210938 210.53125 542.519531 218.246094 550.824219 226.714844 C 562.367188 238.304688 566.191406 241.15625 567.394531 239.453125 C 582.28125 218.308594 593.558594 207.625 615.472656 193.902344 C 617.238281 192.792969 614.457031 188.667969 602.664062 175.625 C 594.378906 166.582031 586.78125 158.859375 585.765625 158.976562 Z M 585.765625 158.976562 "/>
<path style=" stroke:none;fill-rule:nonzero;fill:rgb(0%,0%,0%);fill-opacity:1;" d="M 529.160156 215.710938 C 526.894531 213.914062 525.707031 215.039062 519.234375 224.550781 C 509.761719 238.03125 499.96875 247.3125 485.855469 255.894531 C 476.734375 261.722656 475.101562 263.269531 476.5 265.042969 C 477.484375 266.078125 483.949219 272.90625 490.976562 280.324219 C 498.007812 287.746094 504.472656 294.570312 505.457031 295.609375 C 507.152344 297.101562 508.785156 295.554688 515.09375 286.761719 C 519.015625 280.792969 525.738281 272.734375 529.746094 268.9375 C 533.902344 265.003906 542.164062 258.863281 548.480469 255.128906 C 556.128906 250.421875 558.949219 247.75 558.113281 246.570312 C 555.464844 242.882812 531.714844 217.515625 529.160156 215.710938 Z M 529.160156 215.710938 "/>
<path style=" stroke:none;fill-rule:nonzero;fill:rgb(0%,0%,0%);fill-opacity:1;" d="M 468.738281 269.855469 C 468.011719 269.980469 463.980469 274.644531 459.917969 280.464844 C 450.4375 294.234375 442.128906 302.105469 427.867188 310.832031 C 421.839844 314.570312 416.964844 318.34375 416.800781 319.0625 C 416.746094 321.085938 446.417969 352.109375 448.289062 352.304688 C 449.15625 352.328125 453.195312 347.375 457.117188 341.410156 C 464.660156 329.753906 484.964844 311.363281 494.90625 307.292969 C 497.6875 306.066406 500.195312 304.253906 500.21875 303.386719 C 500.132812 301.214844 470.898438 270.058594 468.738281 269.855469 Z M 468.738281 269.855469 "/>
<path style=" stroke:none;fill-rule:nonzero;fill:rgb(0%,0%,0%);fill-opacity:1;" d="M 410.988281 325.683594 C 409.707031 324.925781 407.769531 327.042969 405.195312 331.457031 C 400.039062 340.28125 373.625 365.308594 364.535156 369.976562 C 358.96875 372.71875 357.632812 373.984375 358.898438 375.320312 C 363.527344 380.507812 385.871094 404.390625 387.988281 406.328125 C 390.105469 408.265625 391.144531 407.28125 397.90625 397.773438 C 407.238281 384.144531 417.035156 374.867188 431.292969 366.144531 L 442.320312 359.355469 L 431.082031 347.195312 C 424.757812 340.515625 418.304688 333.113281 416.347656 330.746094 C 414.527344 328.527344 411.988281 326.144531 410.988281 325.683594 Z M 410.988281 325.683594 "/>
<path style=" stroke:none;fill-rule:nonzero;fill:rgb(0%,0%,0%);fill-opacity:1;" d="M 351.667969 381.046875 C 350.804688 381.023438 346.773438 385.6875 342.710938 391.507812 C 333.230469 405.277344 324.921875 413.148438 310.660156 421.875 C 302.132812 427.136719 299.609375 429.527344 300.429688 431.285156 C 300.828125 432.597656 308.136719 440.3125 316.4375 448.78125 C 328.683594 461.113281 331.808594 463.222656 333.308594 461.238281 C 346.710938 441.5 361.996094 427.019531 380.652344 416.101562 C 383.003906 414.71875 380.910156 411.914062 368.28125 397.691406 C 359.996094 388.648438 352.535156 381.070312 351.667969 381.046875 Z M 351.667969 381.046875 "/>
<path style=" stroke:none;fill-rule:nonzero;fill:rgb(0%,0%,0%);fill-opacity:1;" d="M 622.953125 75.355469 C 622.492188 74.582031 620.242188 75 618.148438 76.003906 C 610.816406 79.8125 590.675781 80.65625 580.574219 77.664062 C 573.183594 75.613281 570.777344 75.449219 570.34375 77.210938 C 569.90625 78.585938 570.007812 88.738281 570.273438 100.0625 C 570.730469 115.679688 571.375 120.160156 572.875 119.75 C 591.46875 114.628906 602.894531 114.480469 621.585938 119.117188 C 623.09375 119.488281 623.648438 114.796875 623.78125 98 C 623.8125 86.28125 623.558594 75.933594 622.953125 75.355469 Z M 622.953125 75.355469 "/>
<path style=" stroke:none;fill-rule:nonzero;fill:rgb(0%,0%,0%);fill-opacity:1;" d="M 564.050781 78.277344 C 563.726562 75.546875 562.523438 75.5625 554.277344 78.011719 C 542.429688 81.292969 532.507812 81.421875 520.597656 78.253906 C 512.761719 76.40625 511.109375 76.425781 510.980469 78.574219 C 510.992188 79.941406 511.082031 88.925781 511.179688 98.6875 C 511.277344 108.449219 511.367188 117.433594 511.382812 118.800781 C 511.554688 120.945312 513.207031 120.921875 521.003906 118.871094 C 526.101562 117.242188 533.757812 115.96875 537.816406 115.917969 C 542.023438 115.863281 549.554688 116.9375 554.832031 118.429688 C 561.3125 120.105469 564.167969 120.066406 564.304688 118.699219 C 564.714844 114.394531 564.53125 81.199219 564.050781 78.277344 Z M 564.050781 78.277344 "/>
<path style=" stroke:none;fill-rule:nonzero;fill:rgb(0%,0%,0%);fill-opacity:1;" d="M 504.378906 76.902344 C 503.925781 76.515625 499.421875 77.160156 494.324219 78.59375 C 482.328125 82.070312 473.910156 82.179688 461.851562 79.015625 C 456.726562 77.714844 452.207031 77.1875 451.761719 77.585938 C 450.722656 78.964844 451.285156 119.96875 452.199219 121.324219 C 452.65625 121.902344 457.308594 121.0625 462.40625 119.433594 C 472.296875 116.179688 492.445312 116.503906 499.851562 120.117188 C 501.964844 121.066406 504.222656 121.429688 504.667969 120.835938 C 505.707031 119.261719 505.449219 78.449219 504.378906 76.902344 Z M 504.378906 76.902344 "/>
<path style=" stroke:none;fill-rule:nonzero;fill:rgb(0%,0%,0%);fill-opacity:1;" d="M 445.316406 78.441406 C 445 77.078125 442.898438 77.300781 439.304688 78.714844 C 432.117188 81.542969 405.355469 81.890625 398.113281 79.25 C 393.734375 77.550781 392.382812 77.566406 392.398438 79.324219 C 392.316406 85.964844 392.476562 117.210938 392.652344 119.941406 C 392.832031 122.671875 393.882812 122.660156 402.28125 120.402344 C 414.125 116.929688 424.046875 116.800781 436.109375 119.960938 L 445.453125 122.378906 L 445.445312 106.5625 C 445.359375 97.773438 445.566406 88.398438 445.6875 85.46875 C 445.808594 82.730469 445.625 79.414062 445.316406 78.441406 Z M 445.316406 78.441406 "/>
<path style=" stroke:none;fill-rule:nonzero;fill:rgb(0%,0%,0%);fill-opacity:1;" d="M 385.632812 78.636719 C 385.179688 78.054688 380.671875 78.699219 375.574219 80.132812 C 363.582031 83.609375 355.164062 83.71875 343.101562 80.554688 C 335.867188 78.695312 333.308594 78.730469 332.878906 80.492188 C 332.4375 81.671875 332.539062 91.824219 332.804688 103.148438 C 333.269531 119.742188 333.90625 123.246094 335.707031 122.832031 C 352.796875 117.730469 368.28125 117.527344 383.8125 122.011719 C 385.773438 122.574219 386.039062 119.25 386.308594 101.085938 C 386.34375 89.367188 386.089844 79.214844 385.632812 78.636719 Z M 385.632812 78.636719 "/>
</g>
</svg>
